<svg id="Component_39_3" data-name="Component 39 – 3" xmlns="http://www.w3.org/2000/svg" width="37.191" height="37.191" viewBox="0 0 37.191 37.191">
  <rect id="Rectangle_69" data-name="Rectangle 69" width="37.191" height="37.191" rx="18.595" fill="#fff"/>
  <g id="facebook_1_" data-name="facebook (1)" transform="translate(13.919 9.28)">
    <path id="Path_99" data-name="Path 99" d="M136.931-511.912a3.839,3.839,0,0,0-2.3,1.309,4.69,4.69,0,0,0-.71,1.41,8.633,8.633,0,0,0-.2,2.65v1.533H131v3.3h2.719v8.3h3.335v-8.3l1.294-.007,1.3-.011.185-1.5c.105-.826.2-1.566.207-1.642l.018-.134h-3v-1.3c0-1.421.025-1.635.207-1.972a1.069,1.069,0,0,1,.609-.482,6.538,6.538,0,0,1,1.678-.127h.8v-2.965l-.207-.022A17.92,17.92,0,0,0,136.931-511.912Z" transform="translate(-131 511.969)" fill="#022e20"/>
  </g>
</svg>
