<svg width="38" height="38" viewBox="0 0 38 38" fill="none" xmlns="http://www.w3.org/2000/svg">
<g clip-path="url(#clip0_2_2)">
<path d="M18.6 0C22.2787 0 25.8749 1.09087 28.9336 3.13467C31.9924 5.17846 34.3764 8.08338 35.7842 11.4821C37.192 14.8808 37.5603 18.6206 36.8426 22.2287C36.1249 25.8367 34.3534 29.1509 31.7522 31.7522C29.1509 34.3534 25.8367 36.1249 22.2287 36.8426C18.6206 37.5603 14.8808 37.192 11.4821 35.7842C8.08338 34.3764 5.17846 31.9924 3.13467 28.9336C1.09087 25.8749 0 22.2787 0 18.6C0 13.667 1.95964 8.93599 5.44781 5.44781C8.93599 1.95964 13.667 0 18.6 0Z" fill="white"/>
<path d="M15 10C12.243 10 10 12.243 10 15V23C10 25.757 12.243 28 15 28H23C25.757 28 28 25.757 28 23V15C28 12.243 25.757 10 23 10H15ZM15 12H23C24.654 12 26 13.346 26 15V23C26 24.654 24.654 26 23 26H15C13.346 26 12 24.654 12 23V15C12 13.346 13.346 12 15 12ZM24 13C23.7348 13 23.4804 13.1054 23.2929 13.2929C23.1054 13.4804 23 13.7348 23 14C23 14.2652 23.1054 14.5196 23.2929 14.7071C23.4804 14.8946 23.7348 15 24 15C24.2652 15 24.5196 14.8946 24.7071 14.7071C24.8946 14.5196 25 14.2652 25 14C25 13.7348 24.8946 13.4804 24.7071 13.2929C24.5196 13.1054 24.2652 13 24 13ZM19 14C16.243 14 14 16.243 14 19C14 21.757 16.243 24 19 24C21.757 24 24 21.757 24 19C24 16.243 21.757 14 19 14ZM19 16C20.654 16 22 17.346 22 19C22 20.654 20.654 22 19 22C17.346 22 16 20.654 16 19C16 17.346 17.346 16 19 16Z" fill="#022E20"/>
</g>
<defs>
<clipPath id="clip0_2_2">
<rect width="37.191" height="37.191" fill="white"/>
</clipPath>
</defs>
</svg>
