<svg id="Component_13_3" data-name="Component 13 – 3" xmlns="http://www.w3.org/2000/svg" width="37.191" height="37.191" viewBox="0 0 37.191 37.191">
  <path id="Path_17889" data-name="Path 17889" d="M18.6,0A18.6,18.6,0,1,1,0,18.6,18.6,18.6,0,0,1,18.6,0Z" fill="#fff"/>
  <g id="linkedin_1_" data-name="linkedin (1)" transform="translate(10.781 10.782)">
    <path id="Path_100" data-name="Path 100" d="M1.439-511.853a2.029,2.029,0,0,0-1.356,1.369,2.694,2.694,0,0,0,0,.986,1.935,1.935,0,0,0,2.33,1.391,1.955,1.955,0,0,0,1.4-1.391,2.563,2.563,0,0,0,0-.974,1.986,1.986,0,0,0-1.372-1.381A2.726,2.726,0,0,0,1.439-511.853Z" transform="translate(-0.037 511.9)" fill="#022e20"/>
    <path id="Path_101" data-name="Path 101" d="M186.8-350.822a3.506,3.506,0,0,0-2.5,1.521l-.112.171-.009-.725-.006-.722H181v10.638h3.328v-2.927c0-3.173.006-3.294.171-3.82a1.661,1.661,0,0,1,1.754-1.216,1.452,1.452,0,0,1,1.163.411,1.857,1.857,0,0,1,.467.939,21.431,21.431,0,0,1,.075,3.447l.012,3.167H191.3l-.012-3.571c-.009-3.092-.016-3.611-.059-3.895a6.719,6.719,0,0,0-.258-1.142,3.139,3.139,0,0,0-3.03-2.28A5.745,5.745,0,0,0,186.8-350.822Z" transform="translate(-175.371 355.861)" fill="#022e20"/>
    <path id="Path_102" data-name="Path 102" d="M8-336.681v5.319h3.328V-342H8Z" transform="translate(-7.752 347.284)" fill="#022e20"/>
  </g>
</svg>
